{"title":"The Big Wedding 2013 720p Bluray DTS x264 SilverTorrentHD","uid":8764912,"size":2580095254,"categoryP":"video","categoryS":"hd___movies","magnet":"?xt=urn:btih:addcbd4f6809f0b25e54584bf29923c247b314a6&amp;dn=The+Big+Wedding+2013+720p+Bluray+DTS+x264+SilverTorrentHD&amp;tr=udp%3A%2F%2Ftracker.openbittorrent.com%3A80&amp;tr=udp%3A%2F%2Fopen.demonii.com%3A1337&amp;tr=udp%3A%2F%2Ftracker.coppersurfer.tk%3A6969&amp;tr=udp%3A%2F%2Fexodus.desync.com%3A6969","seeders":1,"leechers":0,"uploader":"AliBaloch","files":-1,"time":1375314606,"description":" &lt;a href=&quot;http://i874.photobucket.com/albums/ab306/worldwide7477/Custom%20Covers/The-Big-Wedding-2013-Custom-Movie-Cover-Worldwide7477_zpsecc865ef.png&quot; rel=&quot;nofollow&quot; target=&quot;_NEW&quot;&gt;http://i874.photobucket.com/albums/ab306/worldwide7477/Custom%20Covers/The-Big-Wedding-2013-Custom-Movie-Cover-Worldwide7477_zpsecc865ef.png&lt;/a&gt;\n\nThe Big Wedding 2013 720p Bluray DTS x264 SilverTorrentHD\n\nFormat                                   : Matroska\nFormat version                           : Version 4 / Version 2\nFile size                                : 2.35 GiB\nDuration                                 : 1h 29mn\nOverall bit rate                         : 3 754 Kbps\nMovie name                               : The Big Wedding (2013) Encoder Worldwide7477 (SilverTorrentHD)\n\nVideo\nFormat/Info                              : Advanced Video Codec\nFormat profile                           : &lt;a class=&quot;__cf_email__&quot; href=&quot;/cdn-cgi/l/email-protection&quot; data-cfemail=&quot;de96b7b9b69e92eaf0ef&quot;&gt;[email&amp;#160;protected]&lt;/a&gt;&lt;script cf-hash='f9e31' type=&quot;text/javascript&quot;&gt;\n/* &lt;![CDATA[ */!function(){try{var t=&quot;currentScript&quot;in document?document.currentScript:function(){for(var t=document.getElementsByTagName(&quot;script&quot;),e=t.length;e--;)if(t[e].getAttribute(&quot;cf-hash&quot;))return t[e]}();if(t&amp;&amp;t.previousSibling){var e,r,n,i,c=t.previousSibling,a=c.getAttribute(&quot;data-cfemail&quot;);if(a){for(e=&quot;&quot;,r=parseInt(a.substr(0,2),16),n=2;a.length-n;n+=2)i=parseInt(a.substr(n,2),16)^r,e+=String.fromCharCode(i);e=document.createTextNode(e),c.parentNode.replaceChild(e,c)}}}catch(u){}}();/* ]]&gt; */&lt;/script&gt;\nFormat settings, CABAC                   : Yes\nFormat settings, ReFrames                : 4 frames\nCodec ID                                 : V_MPEG4/ISO/AVC\nDuration                                 : 1h 29mn\nBit rate                                 : 2 999 Kbps\nWidth                                    : 1 280 pixels\nHeight                                   : 688 pixels\nDisplay aspect ratio                     : 1.85:1\nFrame rate mode                          : Constant\nFrame rate                               : 23.976 fps\nStream size                              : 1.83 GiB (78%)\nTitle                                    : The Big Wedding 2013 720p Worldwide7477\nLanguage                                 : English\nDefault                                  : Yes\nForced                                   : No\n\nAudio\nFormat                                   : DTS\nFormat/Info                              : Digital Theater Systems\nMode                                     : 16\nFormat settings, Endianness              : Big\nCodec ID                                 : A_DTS\nDuration                                 : 1h 29mn\nBit rate mode                            : Constant\nBit rate                                 : 755 Kbps\nChannel(s)                               : 6 channels\nChannel positions                        : Front: L C R, Side: L R, LFE\nSampling rate                            : 48.0 KHz\nBit depth                                : 24 bits\nStream size                              : 483 MiB (20%)\nTitle                                    : Worldwide7477 (DTS)\nLanguage                                 : English\nDefault                                  : Yes\nForced                                   : No\n &lt;a href=&quot;\nhttp://img16.imageshack.us/img16/2623/8k2.png&quot; rel=&quot;nofollow&quot; target=&quot;_NEW&quot;&gt;\nhttp://img16.imageshack.us/img16/2623/8k2.png&lt;/a&gt;\n &lt;a href=&quot;\nhttp://img18.imageshack.us/img18/3905/py84.png&quot; rel=&quot;nofollow&quot; target=&quot;_NEW&quot;&gt;\nhttp://img18.imageshack.us/img18/3905/py84.png&lt;/a&gt;\n &lt;a href=&quot;\nhttp://img689.imageshack.us/img689/1303/idzz.png&quot; rel=&quot;nofollow&quot; target=&quot;_NEW&quot;&gt;\nhttp://img689.imageshack.us/img689/1303/idzz.png&lt;/a&gt;\n &lt;a href=&quot;\nhttp://img690.imageshack.us/img690/8855/4vn5.png&quot; rel=&quot;nofollow&quot; target=&quot;_NEW&quot;&gt;\nhttp://img690.imageshack.us/img690/8855/4vn5.png&lt;/a&gt;\n &lt;a href=&quot;\nhttp://img542.imageshack.us/img542/2486/l2tj.png&quot; rel=&quot;nofollow&quot; target=&quot;_NEW&quot;&gt;\nhttp://img542.imageshack.us/img542/2486/l2tj.png&lt;/a&gt;\n &lt;a href=&quot;\nhttp://img89.imageshack.us/img89/9272/5pk.png&quot; rel=&quot;nofollow&quot; target=&quot;_NEW&quot;&gt;\nhttp://img89.imageshack.us/img89/9272/5pk.png&lt;/a&gt;\n","torrent":{"xt":"urn:btih:addcbd4f6809f0b25e54584bf29923c247b314a6","amp;dn":"The+Big+Wedding+2013+720p+Bluray+DTS+x264+SilverTorrentHD","amp;tr":["udp%3A%2F%2Ftracker.openbittorrent.com%3A80","udp%3A%2F%2Fopen.demonii.com%3A1337","udp%3A%2F%2Ftracker.coppersurfer.tk%3A6969","udp%3A%2F%2Fexodus.desync.com%3A6969"],"infoHash":"addcbd4f6809f0b25e54584bf29923c247b314a6","infoHashBuffer":{"type":"Buffer","data":[173,220,189,79,104,9,240,178,94,84,88,75,242,153,35,194,71,179,20,166]},"announce":[],"urlList":[]}}